<svg version="1.1" id="Layer_1" xmlns="http://www.w3.org/2000/svg" xmlns:xlink="http://www.w3.org/1999/xlink" x="0px" y="0px"
	 width="100%" viewBox="0 0 223 150" enable-background="new 0 0 223 150" xml:space="preserve">
<path fill="#FEFEFE" opacity="1.000000" stroke="none" 
	d="
M136.000000,151.000000 
	C90.696732,151.000000 45.893463,151.000000 1.045099,151.000000 
	C1.045099,101.063629 1.045099,51.127209 1.045099,1.095395 
	C75.219780,1.095395 149.439728,1.095395 223.829834,1.095395 
	C223.829834,50.999538 223.829834,100.999710 223.829834,151.000000 
	C194.794174,151.000000 165.647095,151.000000 136.000000,151.000000 
M130.573761,140.080414 
	C139.882919,143.230148 149.383881,142.391205 158.744339,140.840454 
	C178.568161,137.556274 192.440948,121.153511 192.051361,101.903900 
	C191.727188,85.886772 182.324341,76.136322 168.772629,69.944397 
	C160.180984,66.018776 150.933563,63.546562 142.246857,59.803761 
	C137.463318,57.742702 132.440765,55.165405 128.896790,51.496655 
	C117.699951,39.905643 123.159508,21.520710 138.845474,17.904709 
	C144.023987,16.710939 149.896973,16.676582 155.095001,17.786293 
	C167.988220,20.538824 177.936646,27.477915 182.609085,40.562477 
	C183.090668,41.911098 184.631531,42.881454 185.680862,44.027332 
	C186.391174,42.871346 187.818130,41.634121 187.697769,40.572289 
	C186.779541,32.471542 185.633728,24.393538 184.388565,16.334749 
	C184.008438,13.874697 182.705383,13.243167 180.058472,14.337582 
	C178.205414,15.103762 175.529907,15.176896 173.670807,14.434674 
	C151.531357,5.595884 133.516586,9.147302 117.096092,26.022783 
	C108.798729,15.387202 97.063782,12.051765 84.414993,11.746531 
	C68.281334,11.357204 52.128948,11.743873 35.984638,11.796717 
	C35.818108,11.797262 35.612919,11.745291 35.491299,11.821880 
	C34.618916,12.371263 33.763519,12.947622 32.902733,13.515416 
	C33.658794,14.421453 34.258152,15.592558 35.215321,16.158428 
	C36.158566,16.716068 37.464184,16.661015 38.610928,16.874155 
	C45.522896,18.158855 48.016312,20.471334 49.311363,27.477467 
	C49.881950,30.564293 50.035919,33.763313 50.047462,36.912617 
	C50.125648,58.242859 50.209995,79.573990 50.085079,100.903610 
	C50.037350,109.052933 49.551163,117.205406 49.065346,125.344536 
	C48.709759,131.301804 45.601181,135.152496 39.734009,136.892838 
	C38.303555,137.317139 37.210648,138.879440 35.962540,139.918518 
	C37.568352,140.354767 39.170620,141.153992 40.780540,141.169708 
	C53.432457,141.293289 66.086761,141.349869 78.737877,141.207764 
	C80.927124,141.183182 83.104729,140.121384 85.287712,139.538666 
	C83.330757,138.647202 81.453560,137.299286 79.403427,136.941055 
	C68.946953,135.113861 65.308411,131.166611 65.129639,120.580757 
	C64.977699,111.584053 64.991791,102.584030 64.989014,93.585464 
	C64.985184,81.187729 65.012192,81.381836 77.352051,81.115646 
	C82.612350,81.002159 86.008499,82.807503 88.826073,87.278076 
	C96.631279,99.662384 104.714859,111.875465 112.887108,124.022537 
	C117.284866,130.559280 122.422020,136.465225 130.573761,140.080414 
z"/>
<path fill="#060606" opacity="1.000000" stroke="none" 
	d="
M130.204010,139.965942 
	C122.422020,136.465225 117.284866,130.559280 112.887108,124.022537 
	C104.714859,111.875465 96.631279,99.662384 88.826073,87.278076 
	C86.008499,82.807503 82.612350,81.002159 77.352051,81.115646 
	C65.012192,81.381836 64.985184,81.187729 64.989014,93.585464 
	C64.991791,102.584030 64.977699,111.584053 65.129639,120.580757 
	C65.308411,131.166611 68.946953,135.113861 79.403427,136.941055 
	C81.453560,137.299286 83.330757,138.647202 85.287712,139.538666 
	C83.104729,140.121384 80.927124,141.183182 78.737877,141.207764 
	C66.086761,141.349869 53.432457,141.293289 40.780540,141.169708 
	C39.170620,141.153992 37.568352,140.354767 35.962540,139.918518 
	C37.210648,138.879440 38.303555,137.317139 39.734009,136.892838 
	C45.601181,135.152496 48.709759,131.301804 49.065346,125.344536 
	C49.551163,117.205406 50.037350,109.052933 50.085079,100.903610 
	C50.209995,79.573990 50.125648,58.242859 50.047462,36.912617 
	C50.035919,33.763313 49.881950,30.564293 49.311363,27.477467 
	C48.016312,20.471334 45.522896,18.158855 38.610928,16.874155 
	C37.464184,16.661015 36.158566,16.716068 35.215321,16.158428 
	C34.258152,15.592558 33.658794,14.421453 32.902733,13.515415 
	C33.763519,12.947622 34.618916,12.371263 35.491299,11.821880 
	C35.612919,11.745291 35.818108,11.797262 35.984638,11.796717 
	C52.128948,11.743873 68.281334,11.357204 84.414993,11.746531 
	C97.063782,12.051765 108.798729,15.387202 117.096092,26.022783 
	C133.516586,9.147302 151.531357,5.595884 173.670807,14.434674 
	C175.529907,15.176896 178.205414,15.103762 180.058472,14.337582 
	C182.705383,13.243167 184.008438,13.874697 184.388565,16.334749 
	C185.633728,24.393538 186.779541,32.471542 187.697769,40.572289 
	C187.818130,41.634121 186.391174,42.871346 185.680862,44.027328 
	C184.631531,42.881454 183.090668,41.911098 182.609085,40.562477 
	C177.936646,27.477915 167.988220,20.538824 155.095001,17.786293 
	C149.896973,16.676582 144.023987,16.710939 138.845474,17.904709 
	C123.159508,21.520710 117.699951,39.905643 128.896790,51.496655 
	C132.440765,55.165405 137.463318,57.742702 142.246857,59.803761 
	C150.933563,63.546562 160.180984,66.018776 168.772629,69.944397 
	C182.324341,76.136322 191.727188,85.886772 192.051361,101.903900 
	C192.440948,121.153511 178.568161,137.556274 158.744339,140.840454 
	C149.383881,142.391205 139.882919,143.230148 130.204010,139.965942 
M131.594788,73.948830 
	C126.442589,70.137222 121.290390,66.325607 116.696846,62.927296 
	C111.324043,67.395935 105.609962,72.148430 99.520599,77.213043 
	C110.080132,92.474556 121.098389,108.089165 131.771774,123.936050 
	C138.677505,134.189026 148.369217,135.791382 159.410233,133.829605 
	C171.391800,131.700760 180.861420,122.179977 181.882248,111.490471 
	C182.958145,100.224281 177.313400,92.289413 164.620880,87.208092 
	C153.835922,82.890419 143.054596,78.563667 131.594788,73.948830 
M88.274033,20.966415 
	C82.708290,20.231270 77.160423,19.245802 71.570694,18.846594 
	C67.667740,18.567852 65.133896,20.922195 65.101280,24.883453 
	C64.980568,39.542194 65.068542,54.202671 65.082031,68.862495 
	C65.085136,72.238029 67.087860,73.727867 70.156075,73.670944 
	C76.299965,73.556946 82.520546,73.754402 88.562889,72.847076 
	C98.696678,71.325371 105.075401,64.565002 107.050499,54.463760 
	C109.726654,40.777134 102.569641,27.570892 88.274033,20.966415 
z"/>
<path fill="#FDFDFD" opacity="1.000000" stroke="none" 
	d="
M131.933228,74.094879 
	C143.054596,78.563667 153.835922,82.890419 164.620880,87.208092 
	C177.313400,92.289413 182.958145,100.224281 181.882248,111.490471 
	C180.861420,122.179977 171.391800,131.700760 159.410233,133.829605 
	C148.369217,135.791382 138.677505,134.189026 131.771774,123.936050 
	C121.098389,108.089165 110.080132,92.474556 99.520599,77.213043 
	C105.609962,72.148430 111.324043,67.395935 116.696846,62.927296 
	C121.290390,66.325607 126.442589,70.137222 131.933228,74.094879 
z"/>
<path fill="#FCFCFC" opacity="1.000000" stroke="none" 
	d="
M88.648369,21.082478 
	C102.569641,27.570892 109.726654,40.777134 107.050499,54.463760 
	C105.075401,64.565002 98.696678,71.325371 88.562889,72.847076 
	C82.520546,73.754402 76.299965,73.556946 70.156075,73.670944 
	C67.087860,73.727867 65.085136,72.238029 65.082031,68.862495 
	C65.068542,54.202671 64.980568,39.542194 65.101280,24.883453 
	C65.133896,20.922195 67.667740,18.567852 71.570694,18.846594 
	C77.160423,19.245802 82.708290,20.231270 88.648369,21.082478 
z"/>
</svg>