<svg xmlns="http://www.w3.org/2000/svg" viewBox="0 0 200 55">
  <rect width="200" height="55" fill="white"/>
  <g transform="translate(1.2, 3.5) scale(0.72)">
    <path d="M0 16.32C0 6.52 6.24.06 15.62.06c7.85 0 13.5 4.5 14.48 11.55h-7.26c-.93-3.14-3.61-4.92-7.39-4.92-5.09 0-8.19 3.61-8.19 9.59s3.14 9.6 8.19 9.6c3.86 0 6.71-1.91 7.56-5.01h7.13c-1.1 7.01-6.96 11.63-14.82 11.63C5.9 32.5 0 26.26 0 16.32Zm53.47 16.2c-9.09 0-15.33-6.62-15.33-16.22S44.43.04 53.51.04s15.41 6.62 15.41 16.22-6.33 16.26-15.45 16.26Zm.09-25.85c-5.09 0-8.15 3.61-8.15 9.59s3.06 9.64 8.15 9.64 8.11-3.69 8.11-9.64-3.06-9.59-8.11-9.59ZM83.8 25.62h12.4v6.37H76.92V.57h6.88v25.05Z" fill="#0d1846"/>
    <path d="M126.9 12.38c2.67 3.71 2.56 7.64-.49 10.7s-6.99 3.23-10.73.53l-5.16 5.16c6.53 5.19 14.64 4.93 20.52-.95s6.19-14.06 1.03-20.6l-5.16 5.16Z" fill="#ff6700"/>
    <path d="M112.81 9.48c3.07-3.07 6.98-3.21 10.71-.5l5.16-5.16c-6.54-5.18-14.67-4.9-20.58 1-5.87 5.87-6.13 14.01-.97 20.54l5.15-5.15c-2.7-3.73-2.56-7.64.53-10.74Z" fill="#0d1846"/>
    <path d="M155.03 0c6.75 0 11 3.74 11 9.68h-6.84c0-2.21-1.66-3.57-4.25-3.57-2.8 0-4.59 1.27-4.59 3.35 0 1.91.98 2.85 3.18 3.31l4.71.98c5.6 1.15 8.28 3.82 8.28 8.79 0 6.07-4.76 10.02-11.97 10.02S143 28.78 143 22.88h6.84c0 2.29 1.7 3.57 4.76 3.57s5.05-1.23 5.05-3.23c0-1.74-.81-2.63-2.89-3.06l-4.8-.98c-5.6-1.15-8.49-4.33-8.49-9.47 0-5.69 4.8-9.72 11.55-9.72Zm31.52 0c6.75 0 11 3.74 11 9.68h-6.84c0-2.21-1.66-3.57-4.25-3.57-2.8 0-4.59 1.27-4.59 3.35 0 1.91.98 2.85 3.18 3.31l4.71.98c5.6 1.15 8.28 3.82 8.28 8.79 0 6.07-4.76 10.02-11.97 10.02s-11.55-3.78-11.55-9.68h6.84c0 2.29 1.7 3.57 4.76 3.57s5.05-1.23 5.05-3.23c0-1.74-.81-2.63-2.89-3.06l-4.8-.98c-5.6-1.15-8.49-4.33-8.49-9.47 0-5.69 4.8-9.72 11.55-9.72Zm19.5.32h6.88v19.15c0 3.95 2.17 6.11 6.03 6.11s6.11-2.25 6.11-6.11V.32h6.88v19.62c0 7.47-5.09 12.31-12.99 12.31s-12.91-4.8-12.91-12.31V.32ZM251.97 0c6.75 0 11 3.74 11 9.68h-6.84c0-2.21-1.66-3.57-4.25-3.57-2.8 0-4.59 1.27-4.59 3.35 0 1.91.98 2.85 3.18 3.31l4.71.98c5.6 1.15 8.28 3.82 8.28 8.79 0 6.07-4.76 10.02-11.97 10.02s-11.55-3.78-11.55-9.68h6.84c0 2.29 1.7 3.57 4.76 3.57s5.05-1.23 5.05-3.23c0-1.74-.81-2.63-2.89-3.06l-4.8-.98c-5.6-1.15-8.49-4.33-8.49-9.47 0-5.69 4.8-9.72 11.55-9.72Z" fill="#ff6700"/>
    <path d="M46.53 64.27V48.28h6.05c4.69 0 7.95 3.28 7.95 8.04s-3.18 7.95-7.73 7.95h-6.27Zm3.5-12.75v9.51h2.42c2.77 0 4.39-1.75 4.39-4.71s-1.71-4.8-4.6-4.8h-2.2Zm31.84 12.75h-3.5V48.28h3.5v15.99Zm21.53-7.84c0 3.22 1.81 4.82 4.36 4.82s3.8-1.43 3.95-3.09h-4.23v-3.07H115v9.18h-3l-.19-1.45c-.86 1.02-2.59 1.69-4.49 1.69-4.47 0-7.6-3.28-7.6-8.19s3.22-8.3 8.17-8.3c3.82 0 6.76 2.25 7.13 5.7h-3.67c-.41-1.68-1.88-2.42-3.54-2.42-2.89 0-4.39 2.03-4.39 5.12Zm32.94 7.84h-3.5V48.28h3.5v15.99Zm17.84-15.99h12.57v3.24h-4.54v12.75h-3.5V51.52h-4.54v-3.24Zm30.41 15.99 5.7-15.99h3.41l5.68 15.99h-3.72l-1.12-3.37h-5.16l-1.15 3.37h-3.65Zm5.82-6.31h3.15l-1.15-3.41c-.17-.54-.37-1.17-.43-1.56-.06.37-.24.97-.43 1.56l-1.15 3.41Zm30.32 3.07h6.31v3.24h-9.81V48.28h3.5v12.75Z" fill="#0d1846"/>
  </g>
</svg>